<svg xmlns="http://www.w3.org/2000/svg" viewBox="0 0 133 304.39999" width="133" height="304.4"><path d="M8.05 257.4h5.4v47h-5.4zm110 0h5.4v47h-5.5z"/><path stroke-miterlimit="10" d="M82.45 12.2l40-.6-5-7.6h-105l-5 7.6 40.2.6v.5l17.4-.3 17.5.3z" stroke="#fff" stroke-width=".9"/><path d="M128.95 13.1c-2-1.7-7.8-3-13-3h-98.5c-5.3 0-11.2 1.3-13.2 3S.45 20.4.45 25.7v226.7c0 5.2 4.4 9.5 9.6 9.5h113c5.2 0 9.5-4.3 9.5-9.5V25.7c0-5.2-1.4-11-3.3-12.6z"/><path stroke-miterlimit="10" d="M128.95 13.1c-2-1.7-7.8-3-13-3h-98.5c-5.3 0-11.2 1.3-13.2 3S.45 20.4.45 25.7v226.7c0 5.2 4.4 9.5 9.6 9.5h113c5.2 0 9.5-4.3 9.5-9.5V25.7c0-5.2-1.4-11-3.3-12.6z" fill="none" stroke="#fff" stroke-width=".9"/><path stroke-miterlimit="10" d="M110.45.4h4.6v266h-4.6zm-92.8 0h4.8v266h-5z" stroke="#fff" stroke-width=".8"/><g stroke-miterlimit="10" transform="translate(-23.55 -26.6)" stroke="#fff"><ellipse cx="92.5" cy="241.8" rx="22" ry="16.7"/><path d="M90.8 224.4H94V259h-3z" stroke-width=".5"/><circle cx="92.5" cy="241.9" r="4.1" stroke-width=".5"/></g></svg>