<svg xmlns="http://www.w3.org/2000/svg" viewBox="0 0 219.0499 119.2" width="219.05" height="119.2"><path d="M92.006 32h35.5v1.6h-35.5zm-55.6 11h4.6v76.2h-4.6zm110.2-43h61.4v88.4h-61.4z"/><path d="M98.006.6h5.4v68h-5.4zm-20.5 0h5.3v68h-5.3zm-4.8 6.2h2.3v24h-2.3zm41.3-6.2h5.4v68h-5.4z"/><path d="M215.806 68.4H3.206s-12.2 18.2 11 26.2h190.6c23.3-8 11-26.2 11-26.2z"/><circle cx="206.306" cy="79.4" r="6.3" fill="#fff"/><circle cx="206.306" cy="79.4" r="3.8"/><path d="M209.806 82.9l.8-1 .5-1.2h-2v1.7l1.7 1.5zm-3.5 1.5l1.3-.2 1.2-.5-1-1-.8.4h-.7v2.3zm-3.5-1.5l1 .8 1.2 1 .6-2h-.7l-1-.3-2 1.5zm-1.4-3.5l.2 1.3.5 2 2-1v-2h-2zm1.4-3.4l-.8 1-.5 1.2 2 .6.4-.7v-.6l-2-2zm3.5-1.4h-1.3l-1.2.6 1 2 .8-.4h.7v-2.2zm3.5 1.4l-1-.8-1.2-.5-.6 3 .7.4.6.4 1.5-1.5zm1.4 3.4l-.2-1.3-.5-1.2-2 1 .4.8v1h2z"/><circle cx="206.406" cy="79.4" r="2.8" fill="#fff"/><circle cx="13.306" cy="79.4" r="6.3" fill="#fff"/><circle cx="13.306" cy="79.4" r="3.8"/><path d="M16.806 82.9l.8-1 .5-1.2h-2v1.7l1.7 1.5zm-3.5 1.5l1.3-.2 1.2-.5-1-1-.8.4h-.7v2.3zm-3.5-1.5l1 .8 1.2 1 .6-2h-.6l-1-.3-2 1.5zm-1.4-3.5l.2 1.3.5 2 2-1v-2h-2zm1.4-3.4l-.8 1-.5 1.2 2 .6.4-.7v-.6l-2-2zm3.5-1.4h-1.3l-1.2.6 1 2 .8-.4h.7v-2.2zm3.5 1.4l-1-.8-1.2-.5-.6 3s.4 0 .7.4l.6.4 1.5-1.5zm1.4 3.4l-.2-1.3-.5-1.2-2 1 .4.8v1h2z"/><circle cx="13.406" cy="79.4" r="2.8" fill="#fff"/><path stroke-miterlimit="10" d="M207.006 88.2h-194c-4.5 0-8-3.6-8-8V79c0-4.4 3.5-8 8-8h194c4.4 0 8 3.6 8 8v1.2c0 4.4-3.7 8-8 8z" fill="none" stroke="#fff"/><path d="M202.806 89.9h4.7v29.3h-4.7zm-116.6-34.3h45.8v12h-45.8zm-80.7 4.7h2V70h-2zm34 0h2V70h-2zm34.3 0h2V70h-2z"/><path d="M108.006 60.3h2V70h-2zm34 0h2V70h-2zm34.3 0h2V70h-2zm34.2 0h2V70h-2zm-208 46h214.7v9.6H2.506z"/><path stroke-miterlimit="10" d="M102.606 4.9h12.4v26h-12.4z" stroke="#fff"/><path d="M72.606 19.9h13.7v11h-13.7zm-59.8 13h23.4v9h-23.4z"/><path d="M19.606 1.6h9v37h-9z"/><path stroke-miterlimit="10" d="M17.606 4.2h13v38.4h-13z" stroke="#fff" stroke-width="2"/><path d="M17.606 4.2h13v38.4h-13z"/><path d="M6.006 39.8h37v7.3h-37z"/><path stroke-miterlimit="10" d="M4.206 58.9h210v2.3H4.006z" stroke="#fff" stroke-width="2"/><path d="M4.206 58.9h210v2.3H4.006z"/><path stroke-miterlimit="10" d="M107.406 4.9h3v26h-3z" stroke="#fff" stroke-width=".5"/><path stroke-miterlimit="10" d="M15.706 19.6h17v1.7h-17z" stroke="#fff"/><path d="M15.706 19.6h17v1.7h-17z"/><path stroke-miterlimit="10" d="M35.206 46.9h24.5v3.3h-24.5z" stroke="#fff" stroke-width="2"/><path d="M35.206 46.9h24.5v3.3h-24.5z"/><path stroke-miterlimit="10" d="M124.406 27.1h27v4h-27z" stroke="#fff" stroke-width="1.5"/><path d="M124.406 27.1h27v4h-27z"/><path stroke-miterlimit="10" d="M15.706 35.6h17v1.7h-17z" stroke="#fff"/><path d="M15.706 35.6h17v1.7h-17z"/><g stroke-miterlimit="10" stroke="#fff"><path d="M10.606 39.4l12.8-1 2.4 32.5-12.8 1z" stroke-width=".9"/><path d="M25.406 48.8l-15.2 1-.3-4.5 15-1.2zm1.2 17l-15.2 1-.3-4.4 16-1.2z" stroke-width=".5"/></g></svg>