<svg xmlns="http://www.w3.org/2000/svg" viewBox="0 0 119 357.39999" width="119" height="357.4"><path d="M9.85 273.1h5.8v84.3h-5.8zm92 0h5.8v84.3h-5.8z"/><path stroke-miterlimit="10" d="M74.65 29.3l36-1-4.5-10h-94.1l-4.5 10 36 1v.7h15.5l15.7.5z" stroke="#fff" stroke-width="1.1"/><path d="M114.05 15.4c-1-1.2-6.4-2-12-2h-84.8c-5.7 0-11 .8-12 2l-3.2 4.2c-.8 1.2-1.5 6.8-1.5 12.5v230.5c0 5.7 2.8 14 6.2 18.7l46.7 62.6c3.4 4.6 8.8 4.5 12-.2l47.5-69.4c3-4.7 5.5-13.3 5.5-19V32.1c0-5.7-.7-11.3-1.6-12.5-1-1-2.5-3-3.3-4.2z"/><path stroke-miterlimit="10" d="M114.05 15.4c-1-1.2-6.4-2-12-2h-84.8c-5.7 0-11 .8-12 2l-3.2 4.2c-.8 1.2-1.5 6.8-1.5 12.5v230.5c0 5.7 2.8 14 6.2 18.7l46.7 62.6c3.4 4.6 8.8 4.5 12-.2l47.5-69.4c3-4.7 5.5-13.3 5.5-19V32.1c0-5.7-.7-11.3-1.6-12.5-1-1-2.5-3-3.3-4.2z" fill="none" stroke="#fff" stroke-width="1.1"/><path stroke-miterlimit="10" d="M95.35.4h4.7v270h-4.7zm-78.5 0h4.7v270h-4.7z" stroke="#fff" stroke-width=".8"/><g stroke-miterlimit="10" transform="translate(-22.95 -23.1)" stroke="#fff"><ellipse cx="83.5" cy="291.4" rx="22" ry="16.7"/><path d="M81.8 274H85v34.7h-3z" stroke-width=".5"/><circle cx="83.5" cy="291.5" r="4.1" stroke-width=".5"/></g></svg>