<svg xmlns="http://www.w3.org/2000/svg" viewBox="0 0 198 213"><g fill="#FFCE00"><path d="M115.4 139v-.4c0-.3-.6-1-.8-1.2l-2-3c-1-1.4-2-2.8-2.8-4.3-4.2-7-8-14-10.5-22-2-6-2.2-13-5.6-19-3.6 1 3.5 19 4 20 1.7 5 4 9 6 14 3.2 6 6.2 13 11.2 18v-1z"/><path d="M113.8 132c2 0 3.3-2.7 3.6-4.3.8-3.8-1-8-2-11.6.5 2-2.2 5-2.8 6-.6 2-3 4-2.3 6 .5 1.8 1.4 5 3.2 5h.3zm-5.4-10c1.7-.2 3.4-2.2 3.8-3.8.4-1.7.4-4 0-5.5 0-1-1.8-4.7-1.4-5.6-1.4 4-5.3 7-5.5 11 0 1.7 0 3 1 4 .7 1 1.4 1 2 1zm-5.4-9.7h.8c2-.4 4-3 4.8-4.7.7-1.6.4-2.7 0-4.3-.8-2-1-3.8-1-6-1.7 1-2.4 3.3-3.8 4.8-1.6 2-3 5-2.8 7 0 2 .5 3 2 4zm-3-11.3c1.6.5 3.7-2 4.5-3.2 1.4-2 1.7-4 1-6-.5-1-1-2-1-3.2 0-.8.4-2-.3-2.8-1 .8-1.7 3-2.3 4.4l-3 4.2c-2 2-2 2.7-1 5 0 .6 0 1.2 1 1.5zm1.2-21c-1.8 2-4.8 3-5.5 5.8-.7 2.8 1 9 4 4.6 2-2.8 2-7.2 1.5-10.3zm7.3 55.7c-1 1.6-4 1.4-5.5 1-3.7-1.4-6.3-5-8.8-8 1.2 1.4 4.8.5 6.3.7 1.6.3 4.6-.6 5.7.8 1 1.2 3.2 3.6 2.4 5.2v.3zm-8-8.5c-1.5.8-4 .2-5.3-1-1.3-1-2.5-3-3.3-4.4-1-1-2-5-2-5.5 3 2 8 2 10 5 1 1.2 1 2.6 1 4 0 1-1 1.6-1 2zm-3-12.2l-.8.5c-1.8.8-5 0-6.6-1-1-1-1-2-2-3.7 0-2-1-3.6-2-5.4 2 0 4 1.3 6 1.7 2.6 1 5 2 6 4s1.7 3 .7 4zm-4.2-11c-1 1.5-4.3.6-5.6 0-2.2-.7-3.6-2-4.2-4.3-.3-1-.5-2-1-3C82 96 81 95 81 94.2c1.5 0 3.3 1.6 4.5 2.3 1.4.8 2.8 1.6 4.3 2 2.2.8 3.3 1 3.5 3.7 0 .6.3 1.2 0 1.8zm-13-16.4c2.6.4 5.8-.3 8 1.5 2 2 4 8-.8 7-3.2-1-5.8-4.3-7-7.2zm9-5c.4 1.7 2 5.8 4 4.5 1 0 1.3-4 1.2-5 0-3-1-6-3.8-8-1.5 2.8-2.4 7-1.5 10z"/></g></svg>