<svg xmlns="http://www.w3.org/2000/svg" viewBox="0 0 226.5 262.5"><path fill="#009578" d="M119.2 107c4-6.7 9.8-15 16.6-20.4 0-2.6-.2-5.4-1-7.8.3.8-6.3 8.5-7.2 9.5-3 3.6-7 7-8.2 11.7-.7 2.5-.8 5-.5 7.6v-.6zm29 15.4c2.5-3.5 3.3-8 4.6-12 .4-1.2 3.4-10.8 4.2-11-3 .8-6 2.4-8.7 4.3-3.4 2.5-6.5 5.4-9.3 8.6-1.8 2-9.2 9.4-9.8 14.2 5.8-2.5 12.7-3.2 19-4zM119 124c-.5-4.7-2-9.2-3.4-13.6-1.6-5-3-10.6-5-15.4-4.3 6.5-8.2 13.4-10 20.8 0 6.2 1.8 12.6 3.8 18.7 5-1.8 10-3 14-3.4l.7-7zm-28.5 16.7c2.4-2 5.5-3.8 9-5.2-2.8-8.4-5.8-17.8-3.2-26-8.6 8.4-31.3 33.4-19.6 46 1 1 2 1.8 3.2 2.4 1-6.6 6-13.7 10.2-17.6zm2.5 3c-4.5 3.8-9.6 11-10 17 0 3.3 0 6.6 1 9.6s3.3 5.8 6.4 6.7c10.6 3 17.5-4.7 20.8-14 1.7-4.6 2.6-9.4 3.3-14.3.2-1.5.3-13.4 1-13.5-7 1-17.2 4-22.6 8.5zm53.8-19c-8.6 1.8-19.7 2-26 8.7l-1 1c-.3 3-.4 7.8-.5 10.6 5.7-2 14-1.6 20.6-.4 5.5-6 10.5-13 14.5-20.6-2.7-.3-5.4.3-8 .8zm-3.4 24.7c-6.4-1.8-16.5-2.8-23-.6h-.3v.5c-.3 5.5-1.4 11-3.3 16.2-1.8 5-4.6 9.7-8.3 12.8 8 4.7 16 .6 21.8-6 3-3.4 5.8-7.3 8-11.3.6-1.4 5-12 5.7-11.6zm4.3-53.6c1-4 .6-8.2 1.6-12.3-3.2 1.2-6 3.4-9.2 5-7 3.5-13.5 12.5-18 19.5l-.5 1.4c1 3.5 2 7 2.6 10.7l-.5 6.7h.5c.6-6 10-15 12-17.5 3-3.3 6.4-6.6 10.2-9.5.5-1 1-2.3 1.3-3.6z"/></svg>