<svg xmlns="http://www.w3.org/2000/svg" viewBox="0 0 83.300003 138.89999" width="83.3" height="138.9"><path d="M41.85 104.85c-22.6 0-38.6 7.2-38.6 7.2-1.7.6-2.8 2.2-2.8 3.6v12c0 1.4 1 3 2.4 3.6 0 0 16 7.2 38.5 7.2s38.7-7.2 38.7-7.2c1.3-.6 2.4-2.2 2.4-3.6v-12c0-1.4-1-3-2.3-3.6 0 0-16-7.2-38.5-7.2z"/><path stroke-miterlimit="10" d="M41.85 104.85c-22.6 0-38.6 7.2-38.6 7.2-1.7.6-2.8 2.2-2.8 3.6v12c0 1.4 1 3 2.4 3.6 0 0 16 7.2 38.5 7.2s38.7-7.2 38.7-7.2c1.3-.6 2.4-2.2 2.4-3.6v-12c0-1.4-1-3-2.3-3.6 0 0-16-7.2-38.5-7.2z" fill="none" stroke="#fff" stroke-width=".9"/><path d="M41.85 123.25c22 0 37.3-6.5 37.3-6.5 1.2-.5 2.3-2 2.3-3.4v-27.5c0-1.3-1-3-2-3.4 0 0-15.4-6.4-37.2-6.4-21.8 0-37.5 6.4-37.5 6.4-1.2.6-2.3 2-2.3 3.5v27c0 1.4 1 3 2.4 3.5 0 0 15.4 6.6 37.3 6.6z"/><path stroke-miterlimit="10" d="M41.85 123.25c22 0 37.3-6.5 37.3-6.5 1.2-.5 2.3-2 2.3-3.4v-27.5c0-1.3-1-3-2-3.4 0 0-15.4-6.4-37.2-6.4-21.8 0-37.5 6.4-37.5 6.4-1.2.6-2.3 2-2.3 3.5v27c0 1.4 1 3 2.4 3.5 0 0 15.4 6.6 37.3 6.6z" fill="none" stroke="#fff" stroke-width=".9"/><path d="M41.85 73.45c-22.6 0-39 4.5-39 4.5-1 .3-2 1.4-2 2.5v6.3c0 1 1 2.2 2 2.5 0 0 16.4 4.4 39 4.4s39-4.4 39-4.4c1-.3 2-1.4 2-2.5v-6.3c0-1-1-2.2-2-2.5 0 0-16.4-4.4-39-4.4z"/><path stroke-miterlimit="10" d="M41.85 73.45c-22.6 0-39 4.5-39 4.5-1 .3-2 1.4-2 2.5v6.3c0 1 1 2.2 2 2.5 0 0 16.4 4.4 39 4.4s39-4.4 39-4.4c1-.3 2-1.4 2-2.5v-6.3c0-1-1-2.2-2-2.5 0 0-16.4-4.4-39-4.4z" fill="none" stroke="#fff" stroke-width=".9"/><path d="M41.85 44.65c-22 0-37.4 5.6-37.4 5.6-1 .4-2 1.8-2 3v22.7c0 1.2 1 2.6 2 3 0 0 16 5.6 37.8 5.6 21.8 0 37.4-5.2 37.4-5.2 1-.4 2-1.8 2-3v-23c0-1-1-2.5-2-3 0 0-15.5-5.5-37.4-5.5z"/><path stroke-miterlimit="10" d="M41.85 44.65c-22 0-37.4 5.6-37.4 5.6-1 .4-2 1.8-2 3v22.7c0 1.2 1 2.6 2 3 0 0 16 5.6 37.8 5.6 21.8 0 37.4-5.2 37.4-5.2 1-.4 2-1.8 2-3v-23c0-1-1-2.5-2-3 0 0-15.5-5.5-37.4-5.5z" fill="none" stroke="#fff" stroke-width=".9"/><path d="M41.85 39.25c-22.6 0-39 4.4-39 4.4-1 .3-2 1.4-2 2.5v6.3c0 1 1 2.2 2 2.5 0 0 16.4 4.4 39 4.4s39-4.8 39-4.8c1-.3 2-1.4 2-2.5v-6.4c0-1-1-2.2-2-2.5 0 0-16.4-4.4-39-4.4z"/><path stroke-miterlimit="10" d="M41.85 39.25c-22.6 0-39 4.4-39 4.4-1 .3-2 1.4-2 2.5v6.3c0 1 1 2.2 2 2.5 0 0 16.4 4.4 39 4.4s39-4.8 39-4.8c1-.3 2-1.4 2-2.5v-6.4c0-1-1-2.2-2-2.5 0 0-16.4-4.4-39-4.4z" fill="none" stroke="#fff" stroke-width=".9"/><path d="M41.85 11.65c-22 0-37.4 5.6-37.4 5.6-1 .4-2 1.8-2 3v22.7c0 1.2 1 2.6 2 3 0 0 16 5.6 37.8 5.6 21.8 0 37.4-5.2 37.4-5.2 1-.4 2-1.8 2-3v-23c0-1-1-2.5-2-3 0 0-15.5-5.5-37.4-5.5z"/><path stroke-miterlimit="10" d="M41.85 11.65c-22 0-37.4 5.6-37.4 5.6-1 .4-2 1.8-2 3v22.7c0 1.2 1 2.6 2 3 0 0 16 5.6 37.8 5.6 21.8 0 37.4-5.2 37.4-5.2 1-.4 2-1.8 2-3v-23c0-1-1-2.5-2-3 0 0-15.5-5.5-37.4-5.5z" fill="none" stroke="#fff" stroke-width=".9"/><path d="M41.85.65c-22.6 0-39 5.3-39 5.3-1 .4-2 1.7-2 3v8c0 1 1 2.4 2 2.8 0 0 16.4 5.3 39 5.3s39-5.3 39-5.3c1-.4 2-1.7 2-3v-8c0-1-1-2.4-2-2.8 0 0-16.4-5.3-39-5.3z"/><path stroke-miterlimit="10" d="M41.85.65c-22.6 0-39 5.3-39 5.3-1 .4-2 1.7-2 3v8c0 1 1 2.4 2 2.8 0 0 16.4 5.3 39 5.3s39-5.3 39-5.3c1-.4 2-1.7 2-3v-8c0-1-1-2.4-2-2.8 0 0-16.4-5.3-39-5.3z" fill="none" stroke="#fff" stroke-width=".9"/><ellipse cx="41.85" cy="6.35" stroke-miterlimit="10" rx="41" ry="5.9" stroke="#fff" stroke-width=".9"/><ellipse cx="41.85" cy="8.85" stroke-miterlimit="10" rx="5.6" ry="1.6" stroke="#fff" stroke-width=".6"/><path stroke-miterlimit="10" d="M37.35 9.75v2.7m9.3-2.7v2.7" stroke="#fff" stroke-width=".6"/></svg>