<svg xmlns="http://www.w3.org/2000/svg" width="177.7" height="232.8" viewBox="0 0 177.7 232.8"><path d="M160.1 231.8h-7v-1.2h2.7v-93h-8v93h3v1.2h-7v1h17m-127-1h-7v-1.2h3v-93h-9v93h2v1.2h-7v1h17.6" class="text-1"/><path d="M174.7 28.6c-1.3-1-4.5-2.6-7.2-3.5l-11.4-4-50-18L99.5.7h-21l-6.8 2.9-50 18-11.4 4c-2.6 1-5.8 2.6-7.2 3.5-1.4.5-2.4 4.5-2.4 8.5v102c0 4 3 7 7 7H170c3.8 0 7-3 7-7v-102c0-4-1-7.8-2.3-8.8z"/><path fill="none" stroke="#fff" stroke-width="1.4" stroke-miterlimit="10" d="M174.7 28.6c-1.3-1-4.5-2.6-7.2-3.5l-11.4-4-50-18L99.5.7h-21l-6.8 2.9-50 18-11.4 4c-2.6 1-5.8 2.6-7.2 3.5-1.4.5-2.4 4.5-2.4 8.5v102c0 4 3 7 7 7H170c3.8 0 7-3 7-7v-102c0-4-1-7.8-2.3-8.8z"/><path fill="#fff" stroke="#000" stroke-width=".8" stroke-miterlimit="10" d="M158.9 139.6h-139c-6.6 0-12-5.3-12-12V47.3c0-6.6 5.4-12 12-12h139c6.6 0 12 5.4 12 12v80.3c0 6.7-5.4 12-12 12z"/><path d="M167.5 62.8v-14l-7 3-6.2-3-4.3 3-5-3-4.4 3-6-2-3 2-6-3-5 2.8-7-2-3.5 2-5.5-2.8-5 2.3-5-1.5-6 3-5.7-3-4 2h-.7l-6-2.7-5 2.7-3.2-2-6.6 2-4-2.7-6 3-3-2-5.6 2-4.5-3-5 3-4.4-3-6 3-8-3.4v79c0 4 5.7 8 12.6 8h131c7 0 12.6-4 12.6-8V62.6z" class="mash-water"/><path stroke="#fff" stroke-width=".7" stroke-miterlimit="10" d="M10.7 25h156.7M3.9 28h169.6"/><g fill="#ffce00" class="grain"><path d="M57.454 114.528l-.155-.104c-.117-.08-.545-.03-.675-.003l-1.685-.007c-.804.02-1.608.043-2.398-.038-3.81-.2-7.516-.557-11.27-1.678-2.848-.792-5.613-2.543-8.827-2.793-.553 1.657 8.28 3.607 8.797 3.675 2.382.646 4.533.8 6.993 1.33 3.162.327 6.66.993 9.903.36l-.388-.26z"/><path d="M54.323 113.32c.523-.776-.184-1.985-.726-2.52-1.264-1.302-3.362-1.7-5.018-2.254.904.33 1.362 2.16 1.593 2.652.618.756.766 2.208 1.724 2.46.83.276 2.304.763 2.774.065l.08-.116zm-5.286-.52c.366-.71.035-1.892-.48-2.465-.555-.6-1.446-1.2-2.132-1.437-.388-.26-2.292-.53-2.536-.92 1.183 1.587 1.327 3.883 2.825 5.005.66.444 1.163.784 1.812.657.57-.01.753-.28.91-.514zm-5.17-.44l.208-.31c.368-.88-.117-2.335-.567-3.09-.438-.688-.942-.86-1.667-1.122-.983-.213-1.733-.605-2.586-1.18-.056.92.652 1.792.868 2.727.357 1.142 1.154 2.47 1.982 2.914.775.52 1.293.588 2.073.268zm-5.164-1.79c.612-.49.19-1.956-.065-2.58-.41-1.065-1.106-1.704-2.064-1.955-.518-.067-1.036-.135-1.5-.448-.312-.21-.672-.678-1.165-.615.048.596.718 1.442 1.103 2.04l.845 2.26c.252 1.298.524 1.48 1.676 1.694.233.157.465.314.843.004zm-7.826-5.95c.305 1.22-.09 2.643.81 3.646.904 1.003 3.75 1.964 2.83-.35-.564-1.505-2.27-2.655-3.6-3.27zm23.496 11.72c.36.806-.502 1.916-1.05 2.393-1.508 1.07-3.583 1.136-5.4 1.32.857-.098 1.45-1.73 1.918-2.258.535-.54.97-1.94 1.8-2 .727-.074 2.232-.3 2.643.428l.116.08zm-5.384.88c-.083.79-.97 1.603-1.774 1.794-.727.242-1.815.185-2.567.13-.65.126-2.46-.532-2.655-.662 1.56-.64 2.865-2.58 4.55-2.57.726-.074 1.27.292 1.812.657.387.26.36.805.514.91zm-5.514-2.024l-.015.44c-.16.908-1.305 1.94-2.11 2.298-.65.126-1.037-.135-1.957-.19-.775-.524-1.657-.554-2.616-.637.523-.775 1.55-1.21 2.227-1.88 1.066-.748 2.08-1.417 3.117-1.282 1.038.135 1.608.125 1.735.774zm-5.36-1.245c.32.78-.89 1.824-1.463 2.17-.846.67-1.716.874-2.764.506-.467-.145-.907-.33-1.425-.396-.402.01-1.05.137-1.36-.072.39-.58 1.48-.86 2.066-1.143.677-.334 1.353-.668 1.9-1.144.884-.643 1.25-1.017 2.348-.39.233.157.543.198.698.47zm-9.753.755c.834-.903 1.4-2.326 2.67-2.71 1.3-.25 4.147.54 2.506 2.14-1.225.98-3.183 1.125-4.62.832zm.413-4.794c.764.29 2.77.74 2.79-.374.26-.388-1.21-1.55-1.625-1.77-1.162-.785-2.586-1.18-4.092-.618.693 1.313 2.086 2.76 3.484 3.193z"/></g><g fill="#ffce00" class="grain"><path d="M74.135 99.278l.187.006c.14.005.477-.264.573-.354l1.434-.885c.67-.444 1.34-.89 2.054-1.238 3.338-1.848 6.67-3.51 10.447-4.546 2.837-.835 6.11-.815 8.968-2.305-.41-1.698-8.932 1.325-9.408 1.542-2.363.713-4.27 1.722-6.637 2.575-2.855 1.397-6.174 2.684-8.59 4.938l.466.016z"/><path d="M77.43 98.645c-.032.934 1.208 1.585 1.95 1.75 1.763.437 3.754-.335 5.452-.744-.942.202-2.3-1.108-2.757-1.405-.925-.312-1.82-1.466-2.765-1.172-.85.204-2.36.573-2.388 1.413l-.005.14zm4.76-2.36c.066.797.972 1.624 1.713 1.837.788.215 1.862.252 2.57.09.466.016 2.224-.764 2.638-.563-1.845-.72-3.182-2.59-5.048-2.75-.794-.027-1.4-.048-1.884.403-.48.31-.49.637-.5.917zm4.62-2.364l-.014.375c.154.94 1.336 1.917 2.117 2.318.736.353 1.255.23 2.01.07.946-.34 1.79-.405 2.818-.37-.44-.81-1.502-1.174-2.18-1.852-.908-.78-2.286-1.482-3.224-1.42-.934-.034-1.41.183-1.9.868zm5.326-1.216c-.26.74.874 1.76 1.422 2.154.91.686 1.84.86 2.786.565.476-.217.95-.435 1.51-.415.375.013.93.22 1.314-.095-.357-.48-1.373-.843-2.018-1.146l-1.913-1.47c-.9-.966-1.228-.978-2.32-.548-.28-.01-.56-.02-.716.44zm9.79.903c-.905-.874-1.323-2.292-2.62-2.664-1.296-.373-4.22.32-2.213 1.793 1.275.98 3.33 1.052 4.787.87zM75.79 96.11c-.732-.495-.59-1.893-.38-2.587.716-1.705 2.44-2.86 3.882-3.98-.674.538-.312 2.234-.43 2.93-.166.744.205 2.16-.466 2.65-.577.448-1.734 1.437-2.47 1.037l-.14-.005zm4.1-3.6c-.35-.714-.028-1.872.553-2.46.49-.59 1.442-1.118 2.11-1.47.483-.45 2.368-.852 2.6-.844-.982 1.37-1.063 3.705-2.497 4.59-.577.448-1.23.425-1.885.402-.466-.016-.73-.493-.917-.5zm5.748-1.202l-.22-.382c-.345-.854.08-2.336.574-3.067.483-.452.95-.435 1.76-.875.935.033 1.7-.408 2.556-.846-.033.933-.673 1.846-.892 2.774-.51 1.198-1.016 2.303-1.966 2.738-.95.434-1.43.745-1.88.26zm5.206-1.783c-.684-.49-.21-2.018.092-2.616.362-1.017.993-1.65 2.077-1.893.472-.123.942-.2 1.417-.418.335-.223.82-.674 1.193-.66-.025.7-.802 1.515-1.148 2.064-.397.64-.793 1.282-1.005 1.976-.41 1.014-.52 1.525-1.785 1.574-.28-.01-.565.12-.84-.03zm7.873-5.805c-.23 1.208.046 2.714-.83 3.712-.968.902-3.803 1.738-3.258-.487.518-1.48 2.102-2.64 3.476-3.153zm2.19 4.285c-.802.16-2.743.84-2.168 1.796-.018.468 1.846.673 2.315.643 1.4.05 2.82-.37 3.8-1.645-1.285-.746-3.232-1.235-4.648-.864z"/></g><g fill="#ffce00" class="grain"><path d="M149.278 93.34l-.177.06c-.132.046-.35.417-.41.536l-1.023 1.338c-.468.654-.935 1.308-1.478 1.89-2.46 2.916-4.98 5.656-8.14 7.972-2.35 1.793-5.416 2.94-7.555 5.353.988 1.44 7.873-4.425 8.24-4.798 1.953-1.508 3.374-3.13 5.282-4.772 2.17-2.323 4.81-4.71 6.265-7.677l-.442.15z"/><path d="M146.424 95.107c-.303-.885-1.693-1.05-2.446-.94-1.802.22-3.387 1.652-4.827 2.64.81-.525 2.545.215 3.078.33.975-.04 2.223.72 3 .108.722-.494 2-1.376 1.728-2.172l-.045-.133zm-3.605 3.9c-.346-.72-1.488-1.17-2.256-1.104-.813.08-1.83.43-2.432.832-.443.152-1.806 1.508-2.265 1.467 1.98.014 3.898 1.284 5.697.767.752-.258 1.327-.455 1.617-1.048.338-.46.232-.77.14-1.036zm-3.473 3.857l-.12-.353c-.48-.823-1.933-1.314-2.806-1.41-.812-.068-1.253.23-1.9.65-.764.657-1.53 1.018-2.502 1.35.7.6 1.822.562 2.698.954 1.126.405 2.665.57 3.52.18.883-.304 1.25-.676 1.465-1.49zm-4.543 3.037c-.02-.782-1.444-1.332-2.096-1.504-1.096-.317-2.026-.147-2.805.466-.366.372-.733.745-1.263.926-.354.12-.945.126-1.193.557.505.32 1.584.297 2.294.35l2.312.692c1.187.582 1.497.476 2.363-.315.265-.09.53-.18.512-.67zm-9.468 2.65c1.157.493 2.053 1.668 3.397 1.554 1.345-.115 3.83-1.805 1.43-2.466-1.542-.46-3.488.206-4.783.896zm23.527-11.66c.86.2 1.224 1.557 1.274 2.28-.06 1.85-1.257 3.544-2.205 5.104.437-.743-.506-2.2-.644-2.892-.11-.753-.962-1.944-.51-2.642.38-.624 1.108-1.96 1.937-1.848l.132-.046zm-2.548 4.825c.58.542.694 1.738.36 2.495-.246.726-.95 1.56-1.447 2.125-.29.594-1.908 1.64-2.13 1.717.43-1.63-.326-3.84.698-5.18.38-.623 1-.835 1.618-1.047.442-.15.86.2 1.036.14zm-4.94 3.173l.34.278c.627.675.758 2.21.558 3.07-.29.594-.733.745-1.334 1.444-.885.303-1.44.988-2.086 1.702-.303-.884-.03-1.965-.156-2.91.048-1.3.127-2.514.86-3.26.733-.744 1.07-1.205 1.663-.914zm-4.23 3.522c.815.215.916 1.81.848 2.477.023 1.078-.34 1.894-1.266 2.508-.397.284-.81.524-1.175.896-.234.328-.525.922-.88 1.043-.226-.664.21-1.702.337-2.338.14-.74.283-1.48.233-2.205.02-1.094-.058-1.61 1.106-2.107.264-.09.484-.315.795-.273zm-5.285 8.23c-.216-1.21-1.01-2.518-.547-3.763.582-1.188 2.932-2.98 3.216-.706.042 1.567-1.024 3.216-2.125 4.186zm-3.573-3.222c.69-.434 2.262-1.762 1.385-2.45-.152-.442-1.966.03-2.393.226-1.328.454-2.503 1.35-2.964 2.892 1.466.24 3.46.002 4.65-.85z"/></g></svg>