<svg xmlns="http://www.w3.org/2000/svg" viewBox="0 0 53 178.5" width="53" height="178.5"><path stroke-miterlimit="10" d="M29.4 167l20-28.3c.8-1 1-2.2 1-3.2V44c0-1-.3-1.6-.6-2.3l-.4-.7-20-27.4h-4.7L5.4 40c-1 1-1.7 2.5-1.7 4v91.5c0 1 .2 1.8.7 2.5l20.3 29" stroke="#fff" stroke-width=".5"/><path stroke-miterlimit="10" d="M25.1 166.5l-20-28c-.6-1-1-2-1-3V44c0-1.4.7-2.7 1.7-3.6L25.1 14h4l20 27.3c.4.8.7 1.7.7 2.6v91c0 1 0 2-.8 3l-20 28" stroke="#fff" stroke-width=".5"/><path d="M49.5 62c1.7 0 3-1.3 3-2.8 0-1.5-1.3-2.7-3-2.7h-45c-1.7 0-3 1.2-3 2.7 0 1.5 1.3 2.7 3 2.7h45z"/><path stroke-miterlimit="10" d="M49.5 62c1.7 0 3-1.3 3-2.8 0-1.5-1.3-2.7-3-2.7h-45c-1.7 0-3 1.2-3 2.7 0 1.5 1.3 2.7 3 2.7h45z" fill="none" stroke="#fff"/><path d="M48.5 88c1.7 0 3-1.2 3-2.7 0-1.5-1.3-2.7-3-2.7h-45c-1.6 0-3 1.2-3 2.7 0 1.5 1.4 2.7 3 2.7h45z"/><path stroke-miterlimit="10" d="M48.5 88c1.7 0 3-1.2 3-2.7 0-1.5-1.3-2.7-3-2.7h-45c-1.6 0-3 1.2-3 2.7 0 1.5 1.4 2.7 3 2.7h45z" fill="none" stroke="#fff"/><path d="M49.5 117c1.7 0 3-1.3 3-2.8 0-1.5-1.3-2.7-3-2.7h-45c-1.7 0-3 1.2-3 2.7 0 1.5 1.3 2.7 3 2.7h45z"/><path stroke-miterlimit="10" d="M49.5 117c1.7 0 3-1.3 3-2.8 0-1.5-1.3-2.7-3-2.7h-45c-1.7 0-3 1.2-3 2.7 0 1.5 1.3 2.7 3 2.7h45z" fill="none" stroke="#fff"/><path d="M48.8 138c1.4 0 2.5-1 2.5-2.4s-1-2.5-2.5-2.5H5.1c-1.3 0-2.4 1.7-2.4 3s1 2.6 2.5 2.6h44z"/><path stroke-miterlimit="10" d="M48.8 138c1.4 0 2.5-1 2.5-2.4s-1-2.5-2.5-2.5H5.1c-1.3 0-2.4 1.7-2.4 3s1 2.6 2.5 2.6h44z" fill="none" stroke="#fff"/><path stroke-miterlimit="10" d="M46.1 178.5V141h-5.2v37.5m-27.2 0V141h-5v37.5M22.5 13h9v3.8h-9z" stroke="#fff" stroke-width=".5"/><path stroke-miterlimit="10" d="M23.1 13.5h8v2.8h-8zM20.7 0v8h-3.6V0" stroke="#fff" stroke-width=".5"/><path stroke-miterlimit="10" d="M17.3 1.3v4.5h-2.4V1.3m6 .3s7.8-1 8.3 11h-4s.8-6-4-7v-4" stroke="#fff" stroke-width=".5"/></svg>