<svg xmlns="http://www.w3.org/2000/svg" id="sour-tun-vector" viewBox="0 0 182.30499 261.92499" width="182.305" height="261.925"><style id="style3"/><path d="M28.405 260.725v-1.2h2.6v-48.6h-8.8v48.6h2.7v1.2h-7v1.2h17.4v-1.2zm124 0v-1.2h2.7v-48.6h-8.8v23.5h-41.6v-17.3h-5v22.4h46.6v20h2.7v1.2h-7v1.2h17.4v-1.2z" id="path5"/><path stroke-miterlimit="10" d="M80.005.325h20.9v34.3h-20.9z" id="path7" stroke="#fff" stroke-width=".65"/><path d="M174.705 57.525c-1.3-.9-4.5-2.5-7.2-3.4-2.6-.9-7.7-2.8-11.4-4.1l-50-17.9c-3.6-1.3-6.6-2.4-6.6-2.4h-21.2s-3 1.1-6.6 2.4l-50 17.9c-3.6 1.3-8.7 3.1-11.4 4.1-2.6.9-5.8 2.5-7.2 3.4-1.3.9-2.4 4.9-2.4 8.7v152.9c0 3.8 3.1 7 7 7h162.3c3.8 0 7-3.1 7-7v-152.9c.1-3.8-1-7.8-2.3-8.7z" id="path9"/><path stroke-miterlimit="10" d="M174.705 57.525c-1.3-.9-4.5-2.5-7.2-3.4-2.6-.9-7.7-2.8-11.4-4.1l-50-17.9c-3.6-1.3-6.6-2.4-6.6-2.4h-21.2s-3 1.1-6.6 2.4l-50 17.9c-3.6 1.3-8.7 3.1-11.4 4.1-2.6.9-5.8 2.5-7.2 3.4-1.3.9-2.4 4.9-2.4 8.7v152.9c0 3.8 3.1 7 7 7h162.3c3.8 0 7-3.1 7-7v-152.9c.1-3.8-1-7.8-2.3-8.7z" id="path11" fill="none" stroke="#fff" stroke-width="1.41"/><path stroke-miterlimit="10" d="M154.505 210.925h-130.7c-6.6 0-12-5.4-12-12v-123.8c0-6.6 5.4-12 12-12h130.7c6.6 0 12 5.4 12 12v123.8c0 6.6-5.4 12-12 12z" id="path13" fill="#fff" stroke="#000" stroke-width=".984"/><path id="sour-tun-path" d="M163.305 101.625l-.1-20.6-6.7 4.4-5.8-4.1-4.1 4.1-4.6-4.1-4.3 4.1-5.3-2.9-3 3.1-5.7-4.3-4.3 4.1-6.3-3.1-3.1 3.1-5.2-4.1-4.6 3.4-3.5-3.1-6.4 4.9-6.6-3.9-3.8 2.9h-.6l-5.7-4.1-5 4-3.1-3.1-6.3 3.1-4.3-4-5.6 4.3-3-3.1-5.3 2.8-4.3-4-4.6 4-4.1-4-5.8 4-7.4-4.9.1 23v92.7c0 6.6 5.4 12 12 12h124.4c6.6 0 12-5.4 12-12v-94.6z"/><path stroke-miterlimit="10" d="M14.805 51.925h154.7m-161.7 3.2h174.5" id="path16" stroke="#fff" stroke-width=".705"/><path stroke-miterlimit="10" d="M128.105 223.825c-2.7 0-4.9-2.2-4.9-4.9s2.2-4.9 4.9-4.9 4.9 2.2 4.9 4.9-2.2 4.9-4.9 4.9z" id="path18" stroke="#fff" stroke-width=".94"/><g id="g20"><path d="M149.6 244.5c-1.5 0-2.7-1.2-2.7-2.7V224c0-1.5 1.2-2.7 2.7-2.7h.5c1.5 0 2.7 1.2 2.7 2.7v17.8c0 1.5-1.2 2.7-2.7 2.7h-.5z" id="path22" transform="translate(-21.695 -4.575)"/><path stroke-miterlimit="10" d="M127.905 239.925c-1.5 0-2.7-1.2-2.7-2.7v-17.8c0-1.5 1.2-2.7 2.7-2.7h.5c1.5 0 2.7 1.2 2.7 2.7v17.8c0 1.5-1.2 2.7-2.7 2.7h-.5z" id="path24" fill="none" stroke="#fff" stroke-width=".94"/></g></svg>