<svg xmlns="http://www.w3.org/2000/svg" class="sour-tun-vector" viewBox="0 0 182.30499 261.92499" width="182.305" height="261.925">
  <style id="style3"/>
  <path d="M28.405 260.725v-1.2h2.6v-48.6h-8.8v48.6h2.7v1.2h-7v1.2h17.4v-1.2zm124 0v-1.2h2.7v-48.6h-8.8v23.5h-41.6v-17.3h-5v22.4h46.6v20h2.7v1.2h-7v1.2h17.4v-1.2z" id="path5"/>
  <path stroke-miterlimit="10" d="M80.005.325h20.9v34.3h-20.9z" id="path7" stroke="#fff" stroke-width=".65"/>
  <path d="M174.705 57.525c-1.3-.9-4.5-2.5-7.2-3.4-2.6-.9-7.7-2.8-11.4-4.1l-50-17.9c-3.6-1.3-6.6-2.4-6.6-2.4h-21.2s-3 1.1-6.6 2.4l-50 17.9c-3.6 1.3-8.7 3.1-11.4 4.1-2.6.9-5.8 2.5-7.2 3.4-1.3.9-2.4 4.9-2.4 8.7v152.9c0 3.8 3.1 7 7 7h162.3c3.8 0 7-3.1 7-7v-152.9c.1-3.8-1-7.8-2.3-8.7z" id="path9"/>
  <path stroke-miterlimit="10" d="M174.705 57.525c-1.3-.9-4.5-2.5-7.2-3.4-2.6-.9-7.7-2.8-11.4-4.1l-50-17.9c-3.6-1.3-6.6-2.4-6.6-2.4h-21.2s-3 1.1-6.6 2.4l-50 17.9c-3.6 1.3-8.7 3.1-11.4 4.1-2.6.9-5.8 2.5-7.2 3.4-1.3.9-2.4 4.9-2.4 8.7v152.9c0 3.8 3.1 7 7 7h162.3c3.8 0 7-3.1 7-7v-152.9c.1-3.8-1-7.8-2.3-8.7z" id="path11" fill="none" stroke="#fff" stroke-width="1.41"/>
  <path stroke-miterlimit="10" d="M154.505 210.925h-130.7c-6.6 0-12-5.4-12-12v-123.8c0-6.6 5.4-12 12-12h130.7c6.6 0 12 5.4 12 12v123.8c0 6.6-5.4 12-12 12z" id="path13" fill="#fff" stroke="#000" stroke-width=".984"/>
  <path id="sour-tun-path" d="M163.305 101.625l-.1-20.6-6.7 4.4-5.8-4.1-4.1 4.1-4.6-4.1-4.3 4.1-5.3-2.9-3 3.1-5.7-4.3-4.3 4.1-6.3-3.1-3.1 3.1-5.2-4.1-4.6 3.4-3.5-3.1-6.4 4.9-6.6-3.9-3.8 2.9h-.6l-5.7-4.1-5 4-3.1-3.1-6.3 3.1-4.3-4-5.6 4.3-3-3.1-5.3 2.8-4.3-4-4.6 4-4.1-4-5.8 4-7.4-4.9.1 23v92.7c0 6.6 5.4 12 12 12h124.4c6.6 0 12-5.4 12-12v-94.6z"/>
  <path stroke-miterlimit="10" d="M14.805 51.925h154.7m-161.7 3.2h174.5" id="path16" stroke="#fff" stroke-width=".705"/>
  <path stroke-miterlimit="10" d="M128.105 223.825c-2.7 0-4.9-2.2-4.9-4.9s2.2-4.9 4.9-4.9 4.9 2.2 4.9 4.9-2.2 4.9-4.9 4.9z" id="path18" stroke="#fff" stroke-width=".94"/>
  <g id="g20">
    <path d="M127.905 239.925c-1.5 0-2.7-1.2-2.7-2.7v-17.8c0-1.5 1.2-2.7 2.7-2.7h.5c1.5 0 2.7 1.2 2.7 2.7v17.8c0 1.5-1.2 2.7-2.7 2.7h-.5z" id="path22"/>
    <path stroke-miterlimit="10" d="M127.905 239.925c-1.5 0-2.7-1.2-2.7-2.7v-17.8c0-1.5 1.2-2.7 2.7-2.7h.5c1.5 0 2.7 1.2 2.7 2.7v17.8c0 1.5-1.2 2.7-2.7 2.7h-.5z" id="path24" fill="none" stroke="#fff" stroke-width=".94"/>
  </g>
  <path d="M47.043 174.276c-.748 1.023-1.81 2.278-2.992 3.048-.038.42-.048.876.045 1.276-.036-.133 1.147-1.28 1.308-1.427.54-.537 1.237-1.026 1.502-1.768.15-.394.205-.796.195-1.22l-.01.096zm-4.457-2.927c-.457.527-.654 1.243-.924 1.87-.083.188-.713 1.695-.845 1.715.497-.084 1.006-.298 1.47-.564.59-.352 1.133-.774 1.634-1.25.323-.296 1.63-1.38 1.8-2.148-.975.317-2.102.326-3.132.36zm4.746.18c.01.768.184 1.518.344 2.25.184.833.325 1.76.576 2.566.794-.986 1.528-2.043 1.93-3.212.094-1.003-.1-2.065-.332-3.08-.835.215-1.662.333-2.314.338l-.22 1.12zm4.86-2.27c-.42.287-.947.532-1.534.705.326 1.4.67 2.966.125 4.252 1.517-1.228 5.565-4.928 3.863-7.142-.147-.177-.296-.32-.48-.436-.263 1.05-1.178 2.124-1.916 2.69zm-.36-.523c.785-.546 1.718-1.633 1.874-2.598.05-.534.1-1.068-.017-1.568-.118-.5-.447-.987-.935-1.18-1.67-.644-2.9.496-3.574 1.95-.343.72-.56 1.48-.748 2.263-.055.24-.25 2.162-.366 2.167 1.147-.056 2.842-.387 3.783-1.033zm-8.985 2.26c1.418-.16 3.216-.025 4.335-1.014l.177-.146c.093-.48.18-1.255.24-1.706-.952.238-2.288.048-3.337-.245-.98.887-1.894 1.943-2.655 3.112.432.09.878.033 1.305-.01zm.922-3.94c1.007.386 2.625.7 3.71.443l.048.005.007-.08c.132-.886.392-1.76.778-2.57.366-.782.89-1.5 1.535-1.945-1.223-.88-2.578-.34-3.615.64-.537.506-1.048 1.094-1.464 1.708-.12.217-.99 1.864-1.098 1.79zm-1.504 8.6c-.222.632-.22 1.317-.444 1.965.535-.146 1.02-.46 1.563-.67 1.184-.46 2.37-1.817 3.204-2.88l.1-.22c-.108-.58-.217-1.162-.258-1.77l.182-1.075-.08-.008c-.188.96-1.844 2.273-2.205 2.647-.536.49-1.135.97-1.793 1.383-.096.154-.197.356-.265.562z" id="path4" fill="#009578" class="hop dynamic"/>
  <path d="M86.123 122.204c.092-.823.378-1.883 1.188-2.723-.284-.24-.63-.492-1.058-.676.15.06-.367 1.104-.443 1.24-.225.485-.677 1-.41 1.497.13.27.38.507.727.734l-.065-.056zm7.652 0c.132-.45-.195-.91-.365-1.346-.048-.132-.48-1.175-.337-1.233-.53.223-.973.52-1.32.83-.427.402-.75.826-.975 1.263-.152.275-.866 1.33-.465 1.808.92-.52 2.264-.927 3.473-1.313zm-5.835 1.593c-.616-.413-1.417-.758-2.186-1.1-.876-.385-1.776-.838-2.712-1.186-.175.82-.223 1.655.215 2.434.677.577 1.747 1.085 2.826 1.554.832-.415 1.73-.774 2.51-1.01l-.62-.686zm-4.04 2.967c.275-.305.716-.627 1.283-.93-1.494-.644-3.14-1.372-3.5-2.265-.852 1.208-2.792 4.66.993 5.255.316.044.61.07.92.066-.514-.664-.26-1.573.177-2.144zm.842.156c-.51.576-.774 1.5-.2 2.078.36.308.72.615 1.254.845.534.23 1.313.378 2.05.308 2.51-.244 3.088-1.303 2.75-2.333-.152-.512-.49-1.004-.883-1.495-.123-.15-1.402-1.264-1.27-1.308-1.33.44-3.102 1.224-3.722 1.91zm8.996-4.433c-1.573.593-3.836 1.16-4.4 2.097l-.097.143c.267.294.77.747 1.057 1.012.954-.47 2.706-.842 4.196-1.057.476-.83.74-1.73.733-2.637-.588.106-1.08.295-1.56.47zm2 2.47c-1.514.15-3.702.555-4.8 1.082l-.06.014.053.046c.54.528.915 1.095 1.093 1.673.176.555.113 1.132-.31 1.604 2.16.042 3.36-.736 3.83-1.638.247-.466.397-.968.413-1.45-.03-.16-.282-1.365-.095-1.363zm-4.973-5.207c-.23-.422-.772-.794-1.015-1.225-.527.27-.863.613-1.347.92-1.058.673-1.412 1.833-1.573 2.708l.05.155c.588.277 1.176.554 1.704.87l.63.648.102-.025c-.532-.588.42-1.89.558-2.223.257-.456.596-.932 1.06-1.39-.005-.118-.045-.264-.125-.4z" id="path4-3" fill="#009578" class="hop dynamic"/>
  <path d="M132.492 120.14c.65-1.09 1.59-2.437 2.695-3.313 0-.423-.032-.877-.162-1.267.05.13-1.023 1.38-1.17 1.543-.487.584-1.136 1.136-1.33 1.9-.115.406-.13.812-.082 1.234v-.098zm4.71 2.5c.405-.568.535-1.3.746-1.95.065-.193.552-1.752.682-1.785-.487.13-.975.39-1.413.698-.552.406-1.055.877-1.51 1.397-.292.325-1.494 1.526-1.592 2.306.942-.406 2.063-.52 3.086-.65zm-4.743.26c-.082-.763-.326-1.494-.553-2.21-.26-.81-.487-1.72-.812-2.5-.698 1.056-1.33 2.177-1.624 3.378 0 1.007.294 2.046.618 3.037.812-.292 1.624-.487 2.274-.552l.113-1.137zm-4.63 2.712c.39-.325.894-.617 1.463-.845-.455-1.364-.942-2.89-.52-4.222-1.397 1.364-5.083 5.424-3.183 7.47.163.162.325.292.52.39.162-1.072.974-2.225 1.656-2.858zm.407.487c-.73.616-1.56 1.785-1.624 2.76 0 .535 0 1.07.163 1.558.162.487.535.942 1.04 1.088 1.72.487 2.84-.763 3.377-2.273.276-.747.422-1.527.535-2.322.033-.243.05-2.175.163-2.19-1.136.16-2.792.648-3.67 1.38zm8.736-3.086c-1.396.292-3.2.324-4.222 1.412l-.16.163c-.05.486-.066 1.265-.082 1.72.925-.325 2.273-.26 3.345-.065.893-.974 1.705-2.11 2.355-3.345-.44-.05-.877.048-1.3.13zm-.552 4.01c-1.038-.292-2.678-.454-3.734-.097h-.048v.08c-.05.894-.228 1.788-.536 2.632-.292.81-.747 1.574-1.348 2.077 1.3.764 2.598.098 3.54-.974.487-.552.942-1.185 1.3-1.835.097-.227.81-1.948.925-1.883zm.7-8.703c.162-.65.097-1.33.26-1.997-.52.195-.975.552-1.495.812-1.136.568-2.192 2.03-2.922 3.167l-.082.227c.164.567.326 1.136.424 1.737l-.082 1.088h.082c.097-.975 1.623-2.436 1.948-2.842.487-.536 1.04-1.072 1.657-1.543.08-.162.16-.373.21-.584z" id="path4-3-3" fill="#009578" class="hop dynamic"/>
  <path d="M112.872 171.15c.65-1.088 1.59-2.436 2.696-3.312 0-.423-.033-.877-.163-1.267.05.13-1.023 1.38-1.17 1.544-.486.584-1.136 1.136-1.33 1.9-.114.405-.13.81-.082 1.234v-.098zm4.71 2.5c.405-.567.535-1.298.746-1.948.065-.195.552-1.753.682-1.786-.487.13-.974.39-1.413.698-.552.406-1.055.877-1.51 1.397-.292.326-1.494 1.527-1.59 2.307.94-.406 2.06-.52 3.084-.65zm-4.742.26c-.082-.762-.325-1.493-.553-2.208-.26-.812-.487-1.72-.81-2.5-.7 1.055-1.333 2.176-1.625 3.377 0 1.006.292 2.045.617 3.036.81-.292 1.623-.487 2.272-.552l.114-1.137zm-4.628 2.713c.39-.325.893-.617 1.46-.845-.454-1.364-.94-2.89-.52-4.222-1.395 1.364-5.08 5.424-3.18 7.47.16.162.323.292.518.39.163-1.072.975-2.225 1.657-2.858zm.406.487c-.73.617-1.56 1.786-1.624 2.76 0 .536 0 1.072.162 1.56.162.486.536.94 1.04 1.087 1.72.487 2.84-.763 3.377-2.273.276-.747.422-1.527.536-2.322.03-.244.048-2.176.16-2.192-1.136.162-2.792.65-3.67 1.38zm8.736-3.086c-1.397.293-3.2.325-4.222 1.413l-.163.163c-.05.487-.066 1.266-.082 1.72.926-.324 2.274-.26 3.345-.064.894-.974 1.705-2.11 2.355-3.345-.438-.048-.877.05-1.3.13zm-.552 4.01c-1.04-.29-2.68-.453-3.735-.096h-.05v.08c-.048.894-.226 1.787-.535 2.632-.292.812-.747 1.575-1.348 2.078 1.3.764 2.6.098 3.54-.974.488-.552.942-1.185 1.3-1.835.097-.228.812-1.95.925-1.885zm.698-8.703c.162-.648.097-1.33.26-1.996-.52.195-.974.552-1.494.812-1.137.568-2.192 2.03-2.923 3.167l-.08.227c.16.568.324 1.137.42 1.737l-.08 1.088h.08c.098-.974 1.625-2.435 1.95-2.84.487-.537 1.04-1.073 1.656-1.544.08-.16.16-.372.21-.584z" id="path4-3-3-1" fill="#009578" class="hop dynamic"/>
  <path d="M51.517 131.692c1.25.204 2.85.584 4.072 1.29.392-.156.802-.353 1.117-.617-.103.093-1.66-.445-1.864-.52-.723-.24-1.475-.64-2.257-.54-.42.043-.802.177-1.177.377l.09-.036zm-.595 5.298c.678.17 1.405.02 2.087-.02.204-.012 1.833-.132 1.91-.023-.3-.406-.72-.763-1.168-1.058-.58-.365-1.203-.66-1.853-.892-.41-.152-1.97-.828-2.73-.632.723.726 1.24 1.727 1.737 2.63zm-1.984-4.314c.68-.356 1.27-.85 1.85-1.325.66-.54 1.423-1.085 2.028-1.673-1.238-.262-2.513-.44-3.738-.27-.936.37-1.795 1.025-2.597 1.69.57.65 1.05 1.332 1.35 1.912l1.1-.313zm-4.223-3.307c.445.242.902.603 1.322 1.048 1.102-.925 2.342-1.94 3.736-2.035-1.782-.798-6.912-2.734-8.117-.215-.09.21-.152.41-.17.626 1.055-.242 2.426.09 3.266.49zm-.304.555c-.84-.452-2.233-.793-3.163-.495-.498.197-.997.394-1.39.724-.394.33-.68.844-.63 1.366.18 1.78 1.754 2.362 3.356 2.306.796-.018 1.574-.17 2.356-.355.238-.06 2.04-.754 2.098-.654-.57-.997-1.63-2.36-2.633-2.906zm6.08 6.99c-.784-1.19-1.476-2.854-2.864-3.406l-.21-.092c-.472.133-1.203.405-1.632.557.643.74 1.078 2.02 1.29 3.087 1.235.472 2.59.81 3.977.96-.115-.425-.367-.797-.597-1.16zm-3.932.962c-.11-1.074-.562-2.66-1.282-3.51l-.018-.045-.075.03c-.85.283-1.745.445-2.644.47-.863.025-1.74-.117-2.43-.49-.23 1.488.865 2.45 2.208 2.933.693.25 1.45.44 2.184.534.247.006 2.11.038 2.092.168zm8.352-2.55c.663-.087 1.274-.398 1.953-.492-.372-.412-.872-.703-1.304-1.09-.948-.85-2.695-1.294-4.02-1.556l-.242.007c-.47.36-.938.72-1.46 1.032l-1.042.323.03.075c.94-.267 2.862.615 3.36.768.676.256 1.377.573 2.042.974.18.016.407.013.62-.02z" id="path4-3-3-1-7" fill="#009578" class="hop dynamic"/>
  <path d="M90.24 152.395c1.238-.263 2.867-.49 4.26-.275.31-.287.622-.62.82-.98-.063.124-1.708.188-1.927.19-.76.04-1.606-.06-2.298.316-.375.193-.684.457-.96.78l.07-.067zm1.365 5.154c.693-.09 1.317-.49 1.937-.778.187-.085 1.662-.787 1.774-.714-.426-.27-.948-.45-1.472-.56-.673-.13-1.36-.18-2.05-.16-.438.006-2.136-.058-2.774.4.938.415 1.783 1.16 2.573 1.822zm-3.413-3.303c.504-.578.875-1.253 1.245-1.906.418-.74.93-1.526 1.282-2.294-1.25.205-2.502.502-3.582 1.105-.74.685-1.302 1.606-1.808 2.517.766.397 1.46.86 1.95 1.292l.91-.69zm-5.135-1.55c.503.064 1.06.234 1.613.497.69-1.26 1.48-2.656 2.744-3.25-1.95-.098-7.433-.043-7.643 2.74-.008.23.007.438.068.647.897-.608 2.295-.796 3.223-.726zm-.08.628c-.95-.117-2.37.07-3.13.685-.393.364-.786.728-1.033 1.178-.247.45-.327 1.034-.092 1.502.813 1.594 2.492 1.566 3.964.933.735-.306 1.406-.728 2.067-1.186.2-.14 1.63-1.443 1.718-1.37-.89-.724-2.373-1.608-3.505-1.754zm8.2 4.31c-1.164-.825-2.413-2.125-3.906-2.136l-.23-.01c-.39.295-.972.813-1.316 1.11.867.46 1.735 1.49 2.32 2.41 1.323-.007 2.708-.184 4.055-.547-.263-.354-.633-.61-.98-.864zm-3.318 2.322c-.493-.96-1.488-2.274-2.468-2.806l-.033-.035-.06.056c-.69.572-1.465 1.048-2.294 1.396-.794.337-1.663.522-2.44.424.322 1.47 1.694 1.972 3.12 1.934.736-.018 1.51-.115 2.23-.294.232-.083 1.98-.73 2.01-.602zm6.858-5.404c.587-.322 1.043-.833 1.642-1.167-.496-.248-1.067-.34-1.61-.544-1.19-.447-2.98-.228-4.31.008l-.222.095c-.307.506-.613 1.01-.988 1.49l-.853.68.055.06c.78-.59 2.89-.464 3.41-.502.723-.007 1.492.034 2.256.167.175-.05.385-.135.573-.243z" id="path4-3-3-1-6" fill="#009578" class="hop dynamic"/>
</svg>