<svg xmlns="http://www.w3.org/2000/svg" viewBox="0 0 61.400002 61.400002" width="61.4" height="61.4"><circle stroke-miterlimit="10" cx="30.7" cy="30.7" r="29.2" fill="#fff" stroke="#ffce00" stroke-width="3"/><circle cx="55.1" cy="28.2" r="1.6" class="dot" fill="#ff8671"/><circle class="dot" r="1.6" cy="35.4" cx="12.4" fill="#ff8671"/><circle class="dot" r="1.6" cy="17" cx="18.6" fill="#ff8671"/><circle class="dot" r="1.6" cy="35.1" cx="48.4" fill="#ff8671"/><circle class="dot" r="1.6" cy="38.8" cx="52.1" fill="#ff8671"/><circle class="dot" r="1.6" cy="40.7" cx="33.8" fill="#ff8671"/><circle r="1.6" cy="53.1" cx="22.2" class="dot" fill="#ff8671"/><circle class="dot" r="1.6" cy="26.8" cx="31.8" fill="#ff8671"/><circle class="dot" r="1.6" cy="29.5" cx="27.8" fill="#ff8671"/><circle class="dot" r="1.6" cy="18.5" cx="47.6" fill="#ff8671"/><circle class="dot" r="1.6" cy="13.3" cx="35" fill="#ff8671"/><circle class="dot" r="1.6" cy="43.8" cx="41.5" fill="#ff8671"/><circle class="dot" r="1.6" cy="5.5" cx="24.4" fill="#ff8671"/><circle class="dot" r="1.6" cy="26.1" cx="6.8" fill="#ff8671"/><path class="microb" d="M22.7 26.1c-.5-.4-.5-1-.2-1.5l3.4-4.2c.4-.5 1-.5 1.5-.2.5.4.5 1 .2 1.5l-3.4 4.2c-.4.5-1 .6-1.5.2zm-.8 19.5c-.5.3-1.2.1-1.4-.4L18 40.4c-.3-.5-.1-1.2.4-1.4.5-.3 1.2-.1 1.4.4l2.5 4.8c.4.5.2 1.1-.4 1.4zm-16.8-5c0-.6.5-1 1.1-1l5.4.2c.6 0 1 .5 1 1.1 0 .6-.5 1-1.1 1l-5.4-.2c-.6 0-1-.5-1-1.1zm43.4-15.2c-.4-.4-.3-1.1.1-1.5l4.2-3.4c.4-.4 1.1-.3 1.5.1.4.4.3 1.1-.1 1.5L50 25.5c-.4.4-1.1.4-1.5-.1zM43.2 12c-.5.3-1.2.1-1.4-.4l-2.5-4.8c-.3-.5-.1-1.2.4-1.4.5-.3 1.2-.1 1.4.4l2.5 4.8c.3.5.1 1.1-.4 1.4zM11.5 24.9c-.6-.1-1-.6-.9-1.2l.8-5.3c.1-.6.6-1 1.2-.9.6.1 1 .6.9 1.2l-.8 5.3c0 .6-.6 1-1.2.9zm31.1 9.4c-.6.2-1.2-.1-1.3-.7l-1.6-5.2c-.2-.6.1-1.2.7-1.3.6-.2 1.2.1 1.3.7l1.6 5.2c.1.6-.2 1.2-.7 1.3zm2.5 13.3c-.5-.3-.7-.9-.4-1.4l2.5-4.8c.3-.5.9-.7 1.4-.4.5.3.7.9.4 1.4l-2.5 4.8c-.3.4-.9.6-1.4.4zM28 40.2c-.4.5-1 .5-1.5.1L22.3 37c-.5-.4-.5-1-.1-1.5s1-.5 1.5-.1l4.2 3.4c.4.3.4 1 .1 1.4zm.1-5.9c-.1-.6.4-1.1 1-1.2l5.4-.5c.6-.1 1.1.4 1.2 1 .1.6-.4 1.1-1 1.2l-5.4.5c-.6 0-1.1-.4-1.2-1zM33.3 54c-.5-.3-.6-1-.2-1.5l3.2-4.3c.3-.5 1-.6 1.5-.2.5.3.6 1 .2 1.5l-3.2 4.3c-.3.5-1 .6-1.5.2zm10 1c-.6.2-1.2-.2-1.3-.7L40.5 49c-.2-.6.2-1.2.7-1.3.6-.2 1.2.2 1.3.7l1.5 5.2c.2.6-.1 1.2-.7 1.4z" fill="#ff8671"/></svg>